<svg width="32" height="33" viewBox="0 0 32 33" fill="none" xmlns="http://www.w3.org/2000/svg">
<circle cx="16" cy="16.1904" r="16" fill="#EB5E99"/>
<path fill-rule="evenodd" clip-rule="evenodd" d="M19.6668 10.5236C20.5873 10.5236 21.3335 9.77741 21.3335 8.85693C21.3335 7.93646 20.5873 7.19027 19.6668 7.19027C18.7464 7.19027 18.0002 7.93646 18.0002 8.85693C18.0002 9.77741 18.7464 10.5236 19.6668 10.5236ZM19.6668 11.8569C21.3237 11.8569 22.6668 10.5138 22.6668 8.85693C22.6668 7.20008 21.3237 5.85693 19.6668 5.85693C18.01 5.85693 16.6668 7.20008 16.6668 8.85693C16.6668 10.5138 18.01 11.8569 19.6668 11.8569ZM12.3335 10.5236C13.254 10.5236 14.0002 9.77743 14.0002 8.85695C14.0002 7.93648 13.254 7.19029 12.3335 7.19029C11.4131 7.19029 10.6669 7.93648 10.6669 8.85695C10.6669 9.77743 11.4131 10.5236 12.3335 10.5236ZM12.3335 11.857C13.9904 11.857 15.3335 10.5138 15.3335 8.85695C15.3335 7.2001 13.9904 5.85695 12.3335 5.85695C10.6767 5.85695 9.33354 7.2001 9.33354 8.85695C9.33354 10.5138 10.6767 11.857 12.3335 11.857ZM12.3335 17.8569C13.254 17.8569 14.0002 17.1107 14.0002 16.1903C14.0002 15.2698 13.254 14.5236 12.3335 14.5236C11.413 14.5236 10.6668 15.2698 10.6668 16.1903C10.6668 17.1107 11.413 17.8569 12.3335 17.8569ZM12.3335 19.1903C13.9904 19.1903 15.3335 17.8471 15.3335 16.1903C15.3335 14.5334 13.9904 13.1903 12.3335 13.1903C10.6766 13.1903 9.3335 14.5334 9.3335 16.1903C9.3335 17.8471 10.6766 19.1903 12.3335 19.1903ZM14.0002 23.5236C14.0002 24.4441 13.254 25.1903 12.3335 25.1903C11.413 25.1903 10.6668 24.4441 10.6668 23.5236C10.6668 22.6031 11.413 21.8569 12.3335 21.8569C13.254 21.8569 14.0002 22.6031 14.0002 23.5236ZM15.3335 23.5236C15.3335 25.1805 13.9904 26.5236 12.3335 26.5236C10.6766 26.5236 9.3335 25.1805 9.3335 23.5236C9.3335 21.8667 10.6766 20.5236 12.3335 20.5236C13.9904 20.5236 15.3335 21.8667 15.3335 23.5236ZM21.3335 16.1903C21.3335 17.1107 20.5873 17.8569 19.6668 17.8569C18.7464 17.8569 18.0002 17.1107 18.0002 16.1903C18.0002 15.2698 18.7464 14.5236 19.6668 14.5236C20.5873 14.5236 21.3335 15.2698 21.3335 16.1903ZM22.6668 16.1903C22.6668 17.8471 21.3237 19.1903 19.6668 19.1903C18.01 19.1903 16.6668 17.8471 16.6668 16.1903C16.6668 14.5334 18.01 13.1903 19.6668 13.1903C21.3237 13.1903 22.6668 14.5334 22.6668 16.1903Z" fill="white"/>
</svg>
