<svg width="665" height="109" viewBox="0 0 665 109" fill="none" xmlns="http://www.w3.org/2000/svg">
<circle cx="48" cy="54.064" r="48" fill="#EB5E99"/>
<path fill-rule="evenodd" clip-rule="evenodd" d="M59.0001 37.0639C61.7615 37.0639 64.0001 34.8254 64.0001 32.0639C64.0001 29.3025 61.7615 27.0639 59.0001 27.0639C56.2386 27.0639 54.0001 29.3025 54.0001 32.0639C54.0001 34.8254 56.2386 37.0639 59.0001 37.0639ZM59.0001 41.0639C63.9706 41.0639 68.0001 37.0345 68.0001 32.0639C68.0001 27.0934 63.9706 23.0639 59.0001 23.0639C54.0295 23.0639 50.0001 27.0934 50.0001 32.0639C50.0001 37.0345 54.0295 41.0639 59.0001 41.0639ZM37 37.064C39.7614 37.064 42 34.8254 42 32.064C42 29.3025 39.7614 27.064 37 27.064C34.2386 27.064 32 29.3025 32 32.064C32 34.8254 34.2386 37.064 37 37.064ZM37 41.064C41.9706 41.064 46 37.0345 46 32.064C46 27.0934 41.9706 23.064 37 23.064C32.0294 23.064 28 27.0934 28 32.064C28 37.0345 32.0294 41.064 37 41.064ZM36.9999 59.064C39.7614 59.064 41.9999 56.8254 41.9999 54.064C41.9999 51.3025 39.7614 49.064 36.9999 49.064C34.2385 49.064 31.9999 51.3025 31.9999 54.064C31.9999 56.8254 34.2385 59.064 36.9999 59.064ZM36.9999 63.064C41.9705 63.064 45.9999 59.0345 45.9999 54.064C45.9999 49.0934 41.9705 45.064 36.9999 45.064C32.0294 45.064 27.9999 49.0934 27.9999 54.064C27.9999 59.0345 32.0294 63.064 36.9999 63.064ZM41.9999 76.064C41.9999 78.8254 39.7614 81.064 36.9999 81.064C34.2385 81.064 31.9999 78.8254 31.9999 76.064C31.9999 73.3026 34.2385 71.064 36.9999 71.064C39.7614 71.064 41.9999 73.3026 41.9999 76.064ZM45.9999 76.064C45.9999 81.0346 41.9705 85.064 36.9999 85.064C32.0294 85.064 27.9999 81.0346 27.9999 76.064C27.9999 71.0934 32.0294 67.064 36.9999 67.064C41.9705 67.064 45.9999 71.0934 45.9999 76.064ZM64.0001 54.064C64.0001 56.8254 61.7615 59.064 59.0001 59.064C56.2386 59.064 54.0001 56.8254 54.0001 54.064C54.0001 51.3025 56.2386 49.064 59.0001 49.064C61.7615 49.064 64.0001 51.3025 64.0001 54.064ZM68.0001 54.064C68.0001 59.0345 63.9706 63.064 59.0001 63.064C54.0295 63.064 50.0001 59.0345 50.0001 54.064C50.0001 49.0934 54.0295 45.064 59.0001 45.064C63.9706 45.064 68.0001 49.0934 68.0001 54.064Z" fill="white"/>
<path d="M133.28 64.096V52.576H141.92C143.552 52.576 144.968 52.264 146.168 51.64C147.368 50.968 148.304 50.032 148.976 48.832C149.648 47.632 149.984 46.216 149.984 44.584C149.984 42.904 149.648 41.464 148.976 40.264C148.304 39.064 147.368 38.152 146.168 37.528C144.968 36.904 143.552 36.592 141.92 36.592H133.28V25.072H141.56C146.072 25.072 149.96 25.84 153.224 27.376C156.536 28.864 159.08 31.024 160.856 33.856C162.632 36.688 163.52 40.072 163.52 44.008V45.16C163.52 49.048 162.632 52.408 160.856 55.24C159.08 58.072 156.536 60.256 153.224 61.792C149.96 63.328 146.072 64.096 141.56 64.096H133.28ZM121.328 78.064V25.072H134.72V78.064H121.328ZM169.408 78.064V25.504H182.512V55.456H180.784C180.784 51.424 181.288 48.04 182.296 45.304C183.304 42.568 184.768 40.504 186.688 39.112C188.656 37.72 191.08 37.024 193.96 37.024H194.536C198.856 37.024 202.144 38.584 204.4 41.704C206.704 44.824 207.856 49.408 207.856 55.456V78.064H194.752V54.952C194.752 53.128 194.2 51.64 193.096 50.488C191.992 49.288 190.528 48.688 188.704 48.688C186.88 48.688 185.392 49.288 184.24 50.488C183.088 51.64 182.512 53.176 182.512 55.096V78.064H169.408ZM236.458 79.504C232.954 79.504 229.834 78.976 227.098 77.92C224.362 76.864 222.034 75.4 220.114 73.528C218.242 71.656 216.802 69.496 215.794 67.048C214.834 64.6 214.354 61.984 214.354 59.2V57.472C214.354 54.592 214.858 51.904 215.866 49.408C216.922 46.912 218.41 44.728 220.33 42.856C222.25 40.984 224.578 39.52 227.314 38.464C230.05 37.408 233.098 36.88 236.458 36.88C239.866 36.88 242.914 37.408 245.602 38.464C248.338 39.52 250.666 40.984 252.586 42.856C254.506 44.728 255.97 46.912 256.978 49.408C258.034 51.904 258.562 54.592 258.562 57.472V59.2C258.562 61.984 258.058 64.6 257.05 67.048C256.09 69.496 254.65 71.656 252.73 73.528C250.858 75.4 248.554 76.864 245.818 77.92C243.082 78.976 239.962 79.504 236.458 79.504ZM236.458 68.56C238.474 68.56 240.13 68.128 241.426 67.264C242.77 66.4 243.778 65.2 244.45 63.664C245.122 62.08 245.458 60.304 245.458 58.336C245.458 56.272 245.098 54.472 244.378 52.936C243.706 51.352 242.698 50.104 241.354 49.192C240.01 48.28 238.378 47.824 236.458 47.824C234.538 47.824 232.906 48.28 231.562 49.192C230.218 50.104 229.186 51.352 228.466 52.936C227.794 54.472 227.458 56.272 227.458 58.336C227.458 60.304 227.794 62.08 228.466 63.664C229.138 65.2 230.146 66.4 231.49 67.264C232.834 68.128 234.49 68.56 236.458 68.56ZM284.672 78.64C280.352 78.64 276.896 78.112 274.304 77.056C271.76 76 269.912 74.248 268.76 71.8C267.608 69.352 267.032 66.04 267.032 61.864L267.104 27.952H279.2L279.128 62.224C279.128 64 279.584 65.368 280.496 66.328C281.456 67.24 282.824 67.696 284.6 67.696H290.072V78.64H284.672ZM261.272 47.824V38.32H290.072V47.824H261.272ZM316.755 79.504C313.251 79.504 310.131 78.976 307.395 77.92C304.659 76.864 302.331 75.4 300.411 73.528C298.539 71.656 297.099 69.496 296.091 67.048C295.131 64.6 294.651 61.984 294.651 59.2V57.472C294.651 54.592 295.155 51.904 296.163 49.408C297.219 46.912 298.707 44.728 300.627 42.856C302.547 40.984 304.875 39.52 307.611 38.464C310.347 37.408 313.395 36.88 316.755 36.88C320.163 36.88 323.211 37.408 325.899 38.464C328.635 39.52 330.963 40.984 332.883 42.856C334.803 44.728 336.267 46.912 337.275 49.408C338.331 51.904 338.859 54.592 338.859 57.472V59.2C338.859 61.984 338.355 64.6 337.347 67.048C336.387 69.496 334.947 71.656 333.027 73.528C331.155 75.4 328.851 76.864 326.115 77.92C323.379 78.976 320.259 79.504 316.755 79.504ZM316.755 68.56C318.771 68.56 320.427 68.128 321.723 67.264C323.067 66.4 324.075 65.2 324.747 63.664C325.419 62.08 325.755 60.304 325.755 58.336C325.755 56.272 325.395 54.472 324.675 52.936C324.003 51.352 322.995 50.104 321.651 49.192C320.307 48.28 318.675 47.824 316.755 47.824C314.835 47.824 313.203 48.28 311.859 49.192C310.515 50.104 309.483 51.352 308.763 52.936C308.091 54.472 307.755 56.272 307.755 58.336C307.755 60.304 308.091 62.08 308.763 63.664C309.435 65.2 310.443 66.4 311.787 67.264C313.131 68.128 314.787 68.56 316.755 68.56ZM358.561 64.096V52.576H367.201C368.833 52.576 370.249 52.264 371.449 51.64C372.649 50.968 373.585 50.032 374.257 48.832C374.929 47.632 375.265 46.216 375.265 44.584C375.265 42.904 374.929 41.464 374.257 40.264C373.585 39.064 372.649 38.152 371.449 37.528C370.249 36.904 368.833 36.592 367.201 36.592H358.561V25.072H366.841C371.353 25.072 375.241 25.84 378.505 27.376C381.817 28.864 384.361 31.024 386.137 33.856C387.913 36.688 388.801 40.072 388.801 44.008V45.16C388.801 49.048 387.913 52.408 386.137 55.24C384.361 58.072 381.817 60.256 378.505 61.792C375.241 63.328 371.353 64.096 366.841 64.096H358.561ZM346.609 78.064V25.072H360.001V78.064H346.609ZM418.175 78.064V66.4H416.015V53.944C416.015 52.12 415.583 50.776 414.719 49.912C413.903 49 412.535 48.544 410.615 48.544C409.703 48.544 408.359 48.568 406.583 48.616C404.807 48.664 402.935 48.736 400.967 48.832C398.999 48.928 397.199 49.024 395.567 49.12V38.176C396.719 38.08 398.087 37.984 399.671 37.888C401.255 37.792 402.887 37.72 404.567 37.672C406.295 37.624 407.879 37.6 409.319 37.6C413.399 37.6 416.855 38.2 419.687 39.4C422.567 40.6 424.751 42.4 426.239 44.8C427.775 47.2 428.543 50.248 428.543 53.944V78.064H418.175ZM405.575 79.072C402.791 79.072 400.319 78.568 398.159 77.56C395.999 76.552 394.295 75.112 393.047 73.24C391.847 71.32 391.247 69.04 391.247 66.4C391.247 63.424 392.039 61.024 393.623 59.2C395.207 57.328 397.391 55.96 400.175 55.096C402.959 54.232 406.151 53.8 409.751 53.8H417.455V60.568H409.751C407.975 60.568 406.607 61.024 405.647 61.936C404.687 62.8 404.207 63.976 404.207 65.464C404.207 66.904 404.687 68.08 405.647 68.992C406.607 69.856 407.975 70.288 409.751 70.288C410.903 70.288 411.911 70.096 412.775 69.712C413.687 69.28 414.431 68.56 415.007 67.552C415.583 66.544 415.919 65.152 416.015 63.376L419.039 66.256C418.799 68.992 418.127 71.32 417.023 73.24C415.967 75.112 414.479 76.552 412.559 77.56C410.687 78.568 408.359 79.072 405.575 79.072ZM455.443 79.504C451.987 79.504 448.987 78.952 446.443 77.848C443.899 76.696 441.763 75.16 440.035 73.24C438.355 71.32 437.083 69.136 436.219 66.688C435.403 64.24 434.995 61.696 434.995 59.056V57.616C434.995 54.832 435.427 52.192 436.291 49.696C437.203 47.2 438.523 44.992 440.251 43.072C441.979 41.152 444.115 39.64 446.659 38.536C449.203 37.432 452.131 36.88 455.443 36.88C459.091 36.88 462.307 37.6 465.091 39.04C467.875 40.48 470.083 42.472 471.715 45.016C473.395 47.512 474.331 50.392 474.523 53.656H461.707C461.563 52.072 460.963 50.728 459.907 49.624C458.899 48.52 457.411 47.968 455.443 47.968C453.763 47.968 452.371 48.4 451.267 49.264C450.211 50.128 449.419 51.328 448.891 52.864C448.363 54.4 448.099 56.224 448.099 58.336C448.099 60.304 448.315 62.056 448.747 63.592C449.227 65.128 449.995 66.328 451.051 67.192C452.155 68.008 453.619 68.416 455.443 68.416C456.787 68.416 457.915 68.176 458.827 67.696C459.739 67.216 460.459 66.544 460.987 65.68C461.515 64.768 461.851 63.712 461.995 62.512H474.811C474.619 65.872 473.659 68.824 471.931 71.368C470.251 73.912 467.995 75.904 465.163 77.344C462.331 78.784 459.091 79.504 455.443 79.504ZM509.679 78.064L497.943 59.488H492.615L508.167 38.32H521.847L507.087 58.264V51.928L524.295 78.064H509.679ZM481.455 78.064V25.504H494.559V78.064H481.455ZM543.559 79.36C537.799 79.36 533.263 78.184 529.951 75.832C526.639 73.432 524.863 70.072 524.623 65.752H536.143C536.335 66.952 537.079 67.984 538.375 68.848C539.671 69.712 541.495 70.144 543.847 70.144C545.527 70.144 546.967 69.904 548.167 69.424C549.415 68.896 550.039 68.056 550.039 66.904C550.039 65.896 549.559 65.08 548.599 64.456C547.639 63.784 545.887 63.328 543.343 63.088L540.607 62.8C535.519 62.272 531.775 60.88 529.375 58.624C526.975 56.368 525.775 53.536 525.775 50.128C525.775 47.2 526.495 44.8 527.935 42.928C529.375 41.008 531.367 39.568 533.911 38.608C536.455 37.648 539.359 37.168 542.623 37.168C547.951 37.168 552.247 38.344 555.511 40.696C558.775 43 560.503 46.336 560.695 50.704H549.175C548.983 49.504 548.335 48.496 547.231 47.68C546.127 46.816 544.543 46.384 542.479 46.384C540.991 46.384 539.767 46.648 538.807 47.176C537.895 47.704 537.439 48.448 537.439 49.408C537.439 50.416 537.871 51.16 538.735 51.64C539.647 52.12 541.087 52.48 543.055 52.72L545.791 53.008C550.879 53.536 554.791 54.952 557.527 57.256C560.311 59.512 561.703 62.488 561.703 66.184C561.703 68.92 560.959 71.272 559.471 73.24C558.031 75.208 555.943 76.72 553.207 77.776C550.519 78.832 547.303 79.36 543.559 79.36ZM565.786 78.064V63.808H579.898V78.064H565.786ZM583.381 78.064L600.229 25.504H621.685L639.109 78.064H625.285L611.749 34.864L615.565 36.304H606.061L609.949 34.864L596.773 78.064H583.381ZM597.133 65.896L601.165 54.952H621.109L625.141 65.896H597.133ZM645.16 78.064V25.504H658.552V78.064H645.16Z" fill="#111928"/>
</svg>
