<svg width="765" height="762" viewBox="0 0 765 762" fill="none" xmlns="http://www.w3.org/2000/svg">
<path d="M186.603 485.524C243.998 485.524 290.526 438.996 290.526 381.601C290.526 324.206 243.998 277.678 186.603 277.678C129.208 277.678 82.6805 324.206 82.6805 381.601C82.6805 438.996 129.208 485.524 186.603 485.524ZM372.265 381.601C372.265 484.139 289.141 567.262 186.603 567.262C84.0656 567.262 0.942261 484.139 0.942261 381.601C0.942261 279.063 84.0656 195.94 186.603 195.94C289.141 195.94 372.265 279.063 372.265 381.601Z" stroke="white"/>
<path d="M382.065 427.49C407.519 427.49 428.154 406.856 428.154 381.402C428.154 355.948 407.519 335.313 382.065 335.313C356.611 335.313 335.977 355.948 335.977 381.402C335.977 406.856 356.611 427.49 382.065 427.49ZM463.625 381.402C463.625 426.446 427.109 462.961 382.065 462.961C337.021 462.961 300.506 426.446 300.506 381.402C300.506 336.358 337.021 299.842 382.065 299.842C427.109 299.842 463.625 336.358 463.625 381.402Z" stroke="white"/>
<path d="M382.065 485.325C439.46 485.325 485.988 438.797 485.988 381.402C485.988 324.007 439.46 277.479 382.065 277.479C324.67 277.479 278.142 324.007 278.142 381.402C278.142 438.797 324.67 485.325 382.065 485.325ZM567.726 381.402C567.726 483.94 484.603 567.063 382.065 567.063C279.527 567.063 196.404 483.94 196.404 381.402C196.404 278.864 279.527 195.741 382.065 195.741C484.603 195.741 567.726 278.864 567.726 381.402Z" stroke="white"/>
<path d="M382.065 679.325C439.46 679.325 485.988 632.797 485.988 575.402C485.988 518.007 439.46 471.479 382.065 471.479C324.67 471.479 278.142 518.007 278.142 575.402C278.142 632.797 324.67 679.325 382.065 679.325ZM567.726 575.402C567.726 677.94 484.603 761.063 382.065 761.063C279.527 761.063 196.404 677.94 196.404 575.402C196.404 472.864 279.527 389.741 382.065 389.741C484.603 389.741 567.726 472.864 567.726 575.402Z" stroke="white"/>
<path d="M382.065 290.325C439.46 290.325 485.988 243.797 485.988 186.402C485.988 129.007 439.46 82.479 382.065 82.479C324.67 82.479 278.142 129.007 278.142 186.402C278.142 243.797 324.67 290.325 382.065 290.325ZM567.726 186.402C567.726 288.94 484.603 372.063 382.065 372.063C279.527 372.063 196.404 288.94 196.404 186.402C196.404 83.864 279.527 0.740723 382.065 0.740723C484.603 0.740723 567.726 83.864 567.726 186.402Z" stroke="white"/>
<path d="M577.926 485.524C635.321 485.524 681.849 438.996 681.849 381.601C681.849 324.206 635.321 277.678 577.926 277.678C520.531 277.678 474.003 324.206 474.003 381.601C474.003 438.996 520.531 485.524 577.926 485.524ZM763.587 381.601C763.587 484.139 680.464 567.262 577.926 567.262C475.388 567.262 392.265 484.139 392.265 381.601C392.265 279.063 475.388 195.94 577.926 195.94C680.464 195.94 763.587 279.063 763.587 381.601Z" stroke="white"/>
</svg>
