<svg width="80" height="80" viewBox="0 0 80 80" fill="none" xmlns="http://www.w3.org/2000/svg">
<path d="M5 40C5 20.67 20.67 5 40 5C59.33 5 75 20.67 75 40C75 59.33 59.33 75 40 75C20.67 75 5 59.33 5 40Z" stroke="#FFDD01" stroke-width="10"/>
<path d="M18.3973 47V34.16L19.2773 34.84H15.4173V32.4H21.2173V47H18.3973ZM30.7734 47.38C29.6267 47.38 28.6534 47.1933 27.8534 46.82C27.0534 46.4333 26.4 45.9133 25.8934 45.26C25.3867 44.5933 25.0134 43.8333 24.7734 42.98C24.5467 42.1133 24.4334 41.2067 24.4334 40.26V39.14C24.4334 37.7933 24.66 36.58 25.1134 35.5C25.5667 34.42 26.26 33.5667 27.1934 32.94C28.1267 32.3 29.32 31.98 30.7734 31.98C32.2134 31.98 33.4 32.3 34.3334 32.94C35.2667 33.5667 35.9534 34.42 36.3934 35.5C36.8467 36.58 37.0734 37.7933 37.0734 39.14V40.26C37.0734 41.2067 36.9534 42.1133 36.7134 42.98C36.4867 43.8333 36.12 44.5933 35.6134 45.26C35.12 45.9133 34.4734 46.4333 33.6734 46.82C32.8734 47.1933 31.9067 47.38 30.7734 47.38ZM30.7734 44.78C31.96 44.78 32.8334 44.3733 33.3934 43.56C33.9534 42.7333 34.2334 41.4533 34.2334 39.72C34.2334 37.88 33.9467 36.5667 33.3734 35.78C32.8 34.98 31.9334 34.58 30.7734 34.58C29.6 34.58 28.72 34.98 28.1334 35.78C27.56 36.5667 27.2734 37.8667 27.2734 39.68C27.2734 41.4267 27.56 42.7133 28.1334 43.54C28.7067 44.3667 29.5867 44.78 30.7734 44.78ZM45.8905 47.38C44.7439 47.38 43.7705 47.1933 42.9705 46.82C42.1705 46.4333 41.5172 45.9133 41.0105 45.26C40.5039 44.5933 40.1305 43.8333 39.8905 42.98C39.6639 42.1133 39.5505 41.2067 39.5505 40.26V39.14C39.5505 37.7933 39.7772 36.58 40.2305 35.5C40.6839 34.42 41.3772 33.5667 42.3105 32.94C43.2439 32.3 44.4372 31.98 45.8905 31.98C47.3305 31.98 48.5172 32.3 49.4505 32.94C50.3839 33.5667 51.0705 34.42 51.5105 35.5C51.9639 36.58 52.1905 37.7933 52.1905 39.14V40.26C52.1905 41.2067 52.0705 42.1133 51.8305 42.98C51.6039 43.8333 51.2372 44.5933 50.7305 45.26C50.2372 45.9133 49.5905 46.4333 48.7905 46.82C47.9905 47.1933 47.0239 47.38 45.8905 47.38ZM45.8905 44.78C47.0772 44.78 47.9505 44.3733 48.5105 43.56C49.0705 42.7333 49.3505 41.4533 49.3505 39.72C49.3505 37.88 49.0639 36.5667 48.4905 35.78C47.9172 34.98 47.0505 34.58 45.8905 34.58C44.7172 34.58 43.8372 34.98 43.2505 35.78C42.6772 36.5667 42.3905 37.8667 42.3905 39.68C42.3905 41.4267 42.6772 42.7133 43.2505 43.54C43.8239 44.3667 44.7039 44.78 45.8905 44.78ZM58.1477 45.06V35.18H60.5877V45.06H58.1477ZM54.5277 41.24V39H64.2077V41.24H54.5277Z" fill="white"/>
</svg>
