<svg width="68" height="68" viewBox="0 0 68 68" fill="none" xmlns="http://www.w3.org/2000/svg">
<path d="M0.5 34C0.5 15.4985 15.4985 0.5 34 0.5C52.5015 0.5 67.5 15.4985 67.5 34C67.5 52.5015 52.5015 67.5 34 67.5C15.4985 67.5 0.5 52.5015 0.5 34Z" stroke="#EB5E99"/>
<path fill-rule="evenodd" clip-rule="evenodd" d="M40.7071 34.293C40.8946 34.4805 40.9999 34.7348 40.9999 35C40.9999 35.2652 40.8946 35.5195 40.7071 35.707L34.7071 41.707C34.5196 41.8945 34.2652 41.9998 34.0001 41.9998C33.7349 41.9998 33.4806 41.8945 33.2931 41.707L27.2931 35.707C27.1976 35.6148 27.1214 35.5044 27.069 35.3824C27.0166 35.2604 26.989 35.1292 26.9878 34.9964C26.9867 34.8636 27.012 34.7319 27.0623 34.609C27.1125 34.4861 27.1868 34.3745 27.2807 34.2806C27.3746 34.1867 27.4862 34.1125 27.6091 34.0622C27.732 34.0119 27.8637 33.9866 27.9965 33.9877C28.1293 33.9889 28.2605 34.0165 28.3825 34.0689C28.5045 34.1213 28.6148 34.1975 28.7071 34.293L33.0001 38.586V27C33.0001 26.7348 33.1054 26.4804 33.293 26.2929C33.4805 26.1054 33.7349 26 34.0001 26C34.2653 26 34.5197 26.1054 34.7072 26.2929C34.8947 26.4804 35.0001 26.7348 35.0001 27V38.586L39.2931 34.293C39.4806 34.1055 39.7349 34.0002 40.0001 34.0002C40.2652 34.0002 40.5196 34.1055 40.7071 34.293Z" fill="#EB5E99"/>
</svg>
