<svg width="80" height="80" viewBox="0 0 80 80" fill="none" xmlns="http://www.w3.org/2000/svg">
<path d="M5 40C5 20.67 20.67 5 40 5C59.33 5 75 20.67 75 40C75 59.33 59.33 75 40 75C20.67 75 5 59.33 5 40Z" stroke="#FFDD01" stroke-width="10"/>
<path fill-rule="evenodd" clip-rule="evenodd" d="M29.5 51.4999C29.5 51.1021 29.658 50.7206 29.9393 50.4393C30.2206 50.158 30.6022 49.9999 31 49.9999H49C49.3978 49.9999 49.7794 50.158 50.0607 50.4393C50.342 50.7206 50.5 51.1021 50.5 51.4999C50.5 51.8977 50.342 52.2793 50.0607 52.5606C49.7794 52.8419 49.3978 52.9999 49 52.9999H31C30.6022 52.9999 30.2206 52.8419 29.9393 52.5606C29.658 52.2793 29.5 51.8977 29.5 51.4999ZM34.4395 36.0604C34.1583 35.7791 34.0003 35.3977 34.0003 34.9999C34.0003 34.6022 34.1583 34.2207 34.4395 33.9394L38.9395 29.4394C39.2208 29.1582 39.6023 29.0002 40 29.0002C40.3977 29.0002 40.7792 29.1582 41.0605 29.4394L45.5605 33.9394C45.8337 34.2223 45.9849 34.6012 45.9815 34.9945C45.9781 35.3878 45.8203 35.764 45.5422 36.0422C45.2641 36.3203 44.8879 36.478 44.4946 36.4814C44.1013 36.4849 43.7224 36.3337 43.4395 36.0604L41.5 34.1209V45.4999C41.5 45.8977 41.342 46.2793 41.0607 46.5606C40.7794 46.8419 40.3978 46.9999 40 46.9999C39.6022 46.9999 39.2206 46.8419 38.9393 46.5606C38.658 46.2793 38.5 45.8977 38.5 45.4999V34.1209L36.5605 36.0604C36.2792 36.3416 35.8977 36.4996 35.5 36.4996C35.1023 36.4996 34.7208 36.3416 34.4395 36.0604V36.0604Z" fill="white"/>
</svg>
